<svg width="34" height="34" viewBox="0 0 34 34" fill="none" xmlns="http://www.w3.org/2000/svg">
<path d="M20.5 16.7L32.6 4.59998C33.7 3.49998 33.7 1.79998 32.6 0.799976C31.5 -0.200024 29.8 -0.300024 28.8 0.799976L16.7 12.9L4.59998 0.799976C3.49998 -0.300024 1.79998 -0.300024 0.799976 0.799976C-0.200024 1.89998 -0.300024 3.59998 0.799976 4.59998L12.9 16.7L0.799976 28.7C-0.300024 29.8 -0.300024 31.5 0.799976 32.5C1.29998 33 1.99998 33.3 2.69998 33.3C3.39998 33.3 4.09998 33 4.59998 32.5L16.7 20.4L28.8 32.5C29.3 33 30 33.3 30.7 33.3C31.4 33.3 32.1 33 32.6 32.5C33.7 31.4 33.7 29.7 32.6 28.7L20.5 16.7Z" fill="white"/>
</svg>
