<svg width="2584" height="1921" viewBox="0 0 2584 1921" fill="none" xmlns="http://www.w3.org/2000/svg">
<path d="M2384.1 214.011C2253.5 76.004 2079.4 0 1894 0C1708.6 0 1534.5 76.004 1403.9 214.011L1292.6 337.618L1182.5 215.611L1181 214.011C1050.4 76.004 876.4 0 691 0V178.209C826.6 178.209 954.4 234.112 1050.9 335.718L1292.6 603.731L1534 335.718C1630.5 234.112 1758.3 178.209 1893.9 178.209C2029.9 178.209 2157.9 234.412 2254.6 336.518C2457.1 550.629 2457.1 898.947 2254.6 1113.06L1716.3 1681.79L1716.2 1681.69L1633.3 1769.19L1633.1 1769.39L1631.2 1771.39C1616.7 1787.89 1608.1 1809.69 1608.9 1833.3C1610.4 1882.7 1651.7 1921.5 1701.1 1920C1724.3 1919.3 1745.2 1909.8 1760.7 1894.8L1761.8 1893.7C1763.1 1892.4 1764.3 1891.2 1765.4 1889.8L1844 1805.99L2384 1235.56C2650.5 953.85 2650.5 495.626 2384.1 214.011" fill="#D70E29"/>
</svg>
